<svg xmlns="http://www.w3.org/2000/svg" xmlns:xlink="http://www.w3.org/1999/xlink" width="904" zoomAndPan="magnify" viewBox="0 0 678 243.75" height="325" preserveAspectRatio="xMidYMid meet" version="1.0"><defs><g/><clipPath id="06cc75ee18"><path d="M 276.070312 111.78125 L 401.195312 111.78125 L 401.195312 243.5 L 276.070312 243.5 Z M 276.070312 111.78125 " clip-rule="nonzero"/></clipPath><clipPath id="7886477a85"><rect x="0" width="329" y="0" height="66"/></clipPath></defs><path fill="#ffffff" d="M 338.664062 144.351562 C 324.835938 144.351562 313.628906 156.125 313.628906 170.648438 C 313.628906 185.171875 324.835938 196.945312 338.664062 196.945312 C 352.492188 196.945312 363.703125 185.171875 363.703125 170.648438 C 363.703125 156.125 352.492188 144.351562 338.664062 144.351562 " fill-opacity="1" fill-rule="nonzero"/><g clip-path="url(#06cc75ee18)"><path fill="#ffffff" d="M 380.25 222.964844 C 374.703125 209.429688 363.0625 200.960938 338.628906 200.960938 C 314.226562 200.960938 302.585938 209.40625 297.03125 222.910156 C 285.726562 211.453125 278.695312 195.378906 278.695312 177.578125 C 278.695312 142.789062 305.546875 114.585938 338.664062 114.585938 C 371.785156 114.585938 398.636719 142.789062 398.636719 177.578125 C 398.636719 195.40625 391.582031 211.503906 380.25 222.964844 Z M 338.664062 111.832031 C 304.097656 111.832031 276.070312 141.265625 276.070312 177.578125 C 276.070312 196.566406 283.738281 213.679688 296 225.679688 C 307.179688 236.625 322.175781 243.320312 338.664062 243.320312 C 355.125 243.320312 370.101562 236.648438 381.277344 225.734375 C 393.570312 213.730469 401.261719 196.597656 401.261719 177.578125 C 401.261719 141.265625 373.234375 111.832031 338.664062 111.832031 " fill-opacity="1" fill-rule="nonzero"/></g><g transform="matrix(1, 0, 0, 1, 174, 10)"><g clip-path="url(#7886477a85)"><g fill="#ffffff" fill-opacity="1"><g transform="translate(1.048217, 52.568467)"><g><path d="M 8.859375 0 L 4.09375 0 L 4.09375 -39.515625 L 8.859375 -39.515625 Z M 8.859375 0 "/></g></g></g><g fill="#ffffff" fill-opacity="1"><g transform="translate(14.043395, 52.568467)"><g><path d="M 8.078125 0 L 3.671875 0 L 3.671875 -28.640625 L 8.078125 -28.640625 L 8.078125 -24.1875 C 9.523438 -26.050781 10.910156 -27.34375 12.234375 -28.0625 C 13.566406 -28.789062 15.007812 -29.15625 16.5625 -29.15625 C 18.8125 -29.15625 20.609375 -28.726562 21.953125 -27.875 C 23.296875 -27.03125 24.316406 -25.953125 25.015625 -24.640625 C 25.703125 -23.367188 26.097656 -22.039062 26.203125 -20.65625 C 26.304688 -19.28125 26.359375 -18.144531 26.359375 -17.25 L 26.359375 0 L 21.953125 0 L 21.953125 -17.25 C 21.953125 -20.28125 21.398438 -22.414062 20.296875 -23.65625 C 19.328125 -24.726562 17.859375 -25.265625 15.890625 -25.265625 C 14.722656 -25.265625 13.707031 -25.070312 12.84375 -24.6875 C 11.976562 -24.3125 11.253906 -23.796875 10.671875 -23.140625 C 9.734375 -22.179688 9.066406 -20.851562 8.671875 -19.15625 C 8.273438 -17.46875 8.078125 -15.15625 8.078125 -12.21875 Z M 8.078125 0 "/></g></g></g><g fill="#ffffff" fill-opacity="1"><g transform="translate(43.864989, 52.568467)"><g><path d="M 5.90625 -33.546875 C 4.96875 -33.546875 4.171875 -33.863281 3.515625 -34.5 C 2.859375 -35.144531 2.53125 -35.914062 2.53125 -36.8125 C 2.53125 -37.707031 2.859375 -38.46875 3.515625 -39.09375 C 4.171875 -39.71875 4.96875 -40.03125 5.90625 -40.03125 C 6.832031 -40.03125 7.625 -39.71875 8.28125 -39.09375 C 8.9375 -38.46875 9.265625 -37.707031 9.265625 -36.8125 C 9.265625 -35.914062 8.9375 -35.144531 8.28125 -34.5 C 7.625 -33.863281 6.832031 -33.546875 5.90625 -33.546875 Z M 8.078125 0 L 3.671875 0 L 3.671875 -28.640625 L 8.078125 -28.640625 Z M 8.078125 0 "/></g></g></g><g fill="#ffffff" fill-opacity="1"><g transform="translate(55.6176, 52.568467)"><g><path d="M 16.359375 0.515625 C 13.671875 0.515625 11.28125 -0.117188 9.1875 -1.390625 C 7.101562 -2.671875 5.460938 -4.441406 4.265625 -6.703125 C 3.078125 -8.960938 2.484375 -11.546875 2.484375 -14.453125 C 2.484375 -17.273438 3.066406 -19.789062 4.234375 -22 C 5.410156 -24.21875 7.039062 -25.960938 9.125 -27.234375 C 11.21875 -28.515625 13.628906 -29.15625 16.359375 -29.15625 C 19.566406 -29.15625 22.285156 -28.328125 24.515625 -26.671875 C 26.742188 -25.015625 28.1875 -22.804688 28.84375 -20.046875 L 24.125 -20.046875 C 23.570312 -21.660156 22.597656 -22.929688 21.203125 -23.859375 C 19.804688 -24.796875 18.191406 -25.265625 16.359375 -25.265625 C 14.566406 -25.265625 12.953125 -24.796875 11.515625 -23.859375 C 10.085938 -22.929688 8.957031 -21.65625 8.125 -20.03125 C 7.300781 -18.414062 6.890625 -16.554688 6.890625 -14.453125 C 6.890625 -12.273438 7.300781 -10.359375 8.125 -8.703125 C 8.957031 -7.046875 10.085938 -5.738281 11.515625 -4.78125 C 12.953125 -3.832031 14.566406 -3.359375 16.359375 -3.359375 C 18.359375 -3.359375 20.070312 -3.894531 21.5 -4.96875 C 22.9375 -6.039062 23.882812 -7.457031 24.34375 -9.21875 L 29.046875 -9.21875 C 28.421875 -6.175781 26.953125 -3.789062 24.640625 -2.0625 C 22.328125 -0.34375 19.566406 0.515625 16.359375 0.515625 Z M 16.359375 0.515625 "/></g></g></g><g fill="#ffffff" fill-opacity="1"><g transform="translate(86.785311, 52.568467)"><g><path d="M 5.90625 -33.546875 C 4.96875 -33.546875 4.171875 -33.863281 3.515625 -34.5 C 2.859375 -35.144531 2.53125 -35.914062 2.53125 -36.8125 C 2.53125 -37.707031 2.859375 -38.46875 3.515625 -39.09375 C 4.171875 -39.71875 4.96875 -40.03125 5.90625 -40.03125 C 6.832031 -40.03125 7.625 -39.71875 8.28125 -39.09375 C 8.9375 -38.46875 9.265625 -37.707031 9.265625 -36.8125 C 9.265625 -35.914062 8.9375 -35.144531 8.28125 -34.5 C 7.625 -33.863281 6.832031 -33.546875 5.90625 -33.546875 Z M 8.078125 0 L 3.671875 0 L 3.671875 -28.640625 L 8.078125 -28.640625 Z M 8.078125 0 "/></g></g></g><g fill="#ffffff" fill-opacity="1"><g transform="translate(98.537922, 52.568467)"><g><path d="M 11.8125 0.515625 C 8.945312 0.515625 6.675781 -0.207031 5 -1.65625 C 3.320312 -3.101562 2.484375 -5.085938 2.484375 -7.609375 C 2.484375 -10.097656 3.414062 -12.066406 5.28125 -13.515625 C 6.800781 -14.722656 8.992188 -15.617188 11.859375 -16.203125 L 22.0625 -18.171875 C 22.0625 -20.421875 21.472656 -22.128906 20.296875 -23.296875 C 18.984375 -24.609375 17.222656 -25.265625 15.015625 -25.265625 C 13.253906 -25.265625 11.722656 -24.796875 10.421875 -23.859375 C 9.128906 -22.929688 8.3125 -21.660156 7.96875 -20.046875 L 3.578125 -20.046875 C 3.921875 -22.046875 4.648438 -23.71875 5.765625 -25.0625 C 6.890625 -26.40625 8.265625 -27.421875 9.890625 -28.109375 C 11.515625 -28.804688 13.238281 -29.15625 15.0625 -29.15625 C 16.71875 -29.15625 18.28125 -28.910156 19.75 -28.421875 C 21.21875 -27.941406 22.453125 -27.203125 23.453125 -26.203125 C 24.453125 -25.234375 25.160156 -24.144531 25.578125 -22.9375 C 25.992188 -21.726562 26.242188 -20.578125 26.328125 -19.484375 C 26.410156 -18.398438 26.453125 -17.53125 26.453125 -16.875 L 26.453125 0 L 22.0625 0 L 22.0625 -4.5 C 21.0625 -3.050781 19.90625 -1.929688 18.59375 -1.140625 C 17.625 -0.554688 16.578125 -0.132812 15.453125 0.125 C 14.335938 0.382812 13.125 0.515625 11.8125 0.515625 Z M 12.328125 -3.359375 C 14.085938 -3.359375 15.601562 -3.6875 16.875 -4.34375 C 18.914062 -5.414062 20.296875 -6.796875 21.015625 -8.484375 C 21.742188 -10.179688 22.109375 -12.222656 22.109375 -14.609375 L 12.796875 -12.734375 C 10.648438 -12.316406 9.078125 -11.644531 8.078125 -10.71875 C 7.285156 -9.925781 6.890625 -8.925781 6.890625 -7.71875 C 6.890625 -6.40625 7.378906 -5.347656 8.359375 -4.546875 C 9.347656 -3.753906 10.671875 -3.359375 12.328125 -3.359375 Z M 12.328125 -3.359375 "/></g></g></g><g fill="#ffffff" fill-opacity="1"><g transform="translate(128.359516, 52.568467)"><g/></g></g><g fill="#ffffff" fill-opacity="1"><g transform="translate(142.856124, 52.568467)"><g><path d="M 18.375 0.515625 C 15.789062 0.515625 13.34375 0.09375 11.03125 -0.75 C 8.71875 -1.59375 6.773438 -2.9375 5.203125 -4.78125 C 3.628906 -6.632812 2.617188 -9.03125 2.171875 -11.96875 L 6.984375 -11.96875 C 7.398438 -9.851562 8.210938 -8.203125 9.421875 -7.015625 C 10.628906 -5.828125 12.050781 -4.984375 13.6875 -4.484375 C 15.332031 -3.984375 16.96875 -3.734375 18.59375 -3.734375 C 21.351562 -3.734375 23.515625 -4.3125 25.078125 -5.46875 C 26.648438 -6.625 27.4375 -8.375 27.4375 -10.71875 C 27.4375 -12.132812 27.132812 -13.289062 26.53125 -14.1875 C 25.925781 -15.082031 25.109375 -15.804688 24.078125 -16.359375 C 23.046875 -16.910156 21.878906 -17.359375 20.578125 -17.703125 C 19.285156 -18.054688 17.929688 -18.382812 16.515625 -18.6875 C 14.960938 -19 13.4375 -19.363281 11.9375 -19.78125 C 10.4375 -20.195312 9.070312 -20.765625 7.84375 -21.484375 C 6.613281 -22.210938 5.628906 -23.1875 4.890625 -24.40625 C 4.148438 -25.632812 3.78125 -27.21875 3.78125 -29.15625 C 3.78125 -31.394531 4.320312 -33.328125 5.40625 -34.953125 C 6.5 -36.578125 8.007812 -37.828125 9.9375 -38.703125 C 11.875 -39.585938 14.132812 -40.03125 16.71875 -40.03125 C 18.96875 -40.03125 21.101562 -39.640625 23.125 -38.859375 C 25.144531 -38.085938 26.867188 -36.867188 28.296875 -35.203125 C 29.734375 -33.546875 30.65625 -31.359375 31.0625 -28.640625 L 26.453125 -28.640625 C 26.078125 -30.429688 25.390625 -31.84375 24.390625 -32.875 C 23.390625 -33.914062 22.210938 -34.660156 20.859375 -35.109375 C 19.515625 -35.554688 18.117188 -35.78125 16.671875 -35.78125 C 14.015625 -35.78125 11.992188 -35.21875 10.609375 -34.09375 C 9.234375 -32.976562 8.546875 -31.46875 8.546875 -29.5625 C 8.546875 -27.976562 9.019531 -26.742188 9.96875 -25.859375 C 10.914062 -24.984375 12.15625 -24.3125 13.6875 -23.84375 C 15.226562 -23.375 16.878906 -22.953125 18.640625 -22.578125 C 20.265625 -22.234375 21.878906 -21.835938 23.484375 -21.390625 C 25.085938 -20.941406 26.546875 -20.316406 27.859375 -19.515625 C 29.171875 -18.722656 30.222656 -17.65625 31.015625 -16.3125 C 31.804688 -14.96875 32.203125 -13.207031 32.203125 -11.03125 C 32.203125 -7.539062 31.03125 -4.742188 28.6875 -2.640625 C 26.34375 -0.535156 22.90625 0.515625 18.375 0.515625 Z M 18.375 0.515625 "/></g></g></g><g fill="#ffffff" fill-opacity="1"><g transform="translate(177.699769, 52.568467)"><g><path d="M 16.421875 0.515625 C 13.691406 0.515625 11.269531 -0.128906 9.15625 -1.421875 C 7.050781 -2.710938 5.410156 -4.472656 4.234375 -6.703125 C 3.066406 -8.929688 2.484375 -11.441406 2.484375 -14.234375 C 2.484375 -16.828125 3.019531 -19.257812 4.09375 -21.53125 C 5.164062 -23.8125 6.734375 -25.648438 8.796875 -27.046875 C 10.867188 -28.453125 13.375 -29.15625 16.3125 -29.15625 C 18.726562 -29.15625 20.976562 -28.617188 23.0625 -27.546875 C 25.15625 -26.472656 26.859375 -24.882812 28.171875 -22.78125 C 29.484375 -20.675781 30.140625 -18.085938 30.140625 -15.015625 L 30.140625 -13.46875 L 6.828125 -13.46875 C 6.898438 -12.46875 7.09375 -11.515625 7.40625 -10.609375 C 8.125 -8.398438 9.273438 -6.640625 10.859375 -5.328125 C 12.453125 -4.015625 14.285156 -3.359375 16.359375 -3.359375 C 18.535156 -3.359375 20.347656 -3.9375 21.796875 -5.09375 C 23.242188 -6.25 24.28125 -7.625 24.90625 -9.21875 L 29.625 -9.21875 C 29.03125 -7.425781 28.144531 -5.796875 26.96875 -4.328125 C 25.800781 -2.859375 24.34375 -1.679688 22.59375 -0.796875 C 20.851562 0.078125 18.796875 0.515625 16.421875 0.515625 Z M 7.25 -17.34375 L 25.421875 -17.34375 C 25.390625 -17.832031 25.320312 -18.316406 25.21875 -18.796875 C 25.113281 -19.273438 24.972656 -19.722656 24.796875 -20.140625 C 24.035156 -21.796875 22.90625 -23.0625 21.40625 -23.9375 C 19.90625 -24.820312 18.242188 -25.265625 16.421875 -25.265625 C 14.515625 -25.265625 12.84375 -24.816406 11.40625 -23.921875 C 9.976562 -23.023438 8.867188 -21.765625 8.078125 -20.140625 C 7.867188 -19.691406 7.695312 -19.222656 7.5625 -18.734375 C 7.425781 -18.253906 7.320312 -17.789062 7.25 -17.34375 Z M 7.25 -17.34375 "/></g></g></g><g fill="#ffffff" fill-opacity="1"><g transform="translate(210.26536, 52.568467)"><g><path d="M 15.21875 0.515625 C 11.5625 0.515625 8.601562 -0.351562 6.34375 -2.09375 C 4.082031 -3.84375 2.710938 -6.21875 2.234375 -9.21875 L 6.828125 -9.21875 C 7.210938 -7.488281 8.078125 -6.078125 9.421875 -4.984375 C 10.765625 -3.898438 12.71875 -3.359375 15.28125 -3.359375 C 17.207031 -3.359375 18.785156 -3.726562 20.015625 -4.46875 C 21.242188 -5.21875 21.859375 -6.316406 21.859375 -7.765625 C 21.859375 -8.972656 21.476562 -9.90625 20.71875 -10.5625 C 19.957031 -11.21875 18.960938 -11.71875 17.734375 -12.0625 C 16.503906 -12.40625 15.1875 -12.71875 13.78125 -13 C 12.53125 -13.238281 11.289062 -13.515625 10.0625 -13.828125 C 8.84375 -14.140625 7.734375 -14.570312 6.734375 -15.125 C 5.734375 -15.675781 4.929688 -16.414062 4.328125 -17.34375 C 3.722656 -18.28125 3.421875 -19.472656 3.421875 -20.921875 C 3.421875 -22.710938 3.875 -24.21875 4.78125 -25.4375 C 5.695312 -26.664062 6.945312 -27.59375 8.53125 -28.21875 C 10.125 -28.84375 11.890625 -29.15625 13.828125 -29.15625 C 16.929688 -29.15625 19.519531 -28.351562 21.59375 -26.75 C 23.664062 -25.144531 24.941406 -22.910156 25.421875 -20.046875 L 21.328125 -20.046875 C 20.878906 -21.867188 19.988281 -23.191406 18.65625 -24.015625 C 17.332031 -24.847656 15.722656 -25.265625 13.828125 -25.265625 C 11.929688 -25.265625 10.453125 -24.910156 9.390625 -24.203125 C 8.335938 -23.492188 7.8125 -22.519531 7.8125 -21.28125 C 7.8125 -20.28125 8.164062 -19.492188 8.875 -18.921875 C 9.582031 -18.359375 10.503906 -17.925781 11.640625 -17.625 C 12.785156 -17.332031 14.015625 -17.050781 15.328125 -16.78125 C 16.609375 -16.539062 17.894531 -16.253906 19.1875 -15.921875 C 20.476562 -15.597656 21.660156 -15.140625 22.734375 -14.546875 C 23.804688 -13.960938 24.660156 -13.171875 25.296875 -12.171875 C 25.929688 -11.171875 26.25 -9.859375 26.25 -8.234375 C 26.25 -5.609375 25.289062 -3.492188 23.375 -1.890625 C 21.457031 -0.285156 18.738281 0.515625 15.21875 0.515625 Z M 15.21875 0.515625 "/></g></g></g><g fill="#ffffff" fill-opacity="1"><g transform="translate(239.103243, 52.568467)"><g><path d="M 5.90625 -33.546875 C 4.96875 -33.546875 4.171875 -33.863281 3.515625 -34.5 C 2.859375 -35.144531 2.53125 -35.914062 2.53125 -36.8125 C 2.53125 -37.707031 2.859375 -38.46875 3.515625 -39.09375 C 4.171875 -39.71875 4.96875 -40.03125 5.90625 -40.03125 C 6.832031 -40.03125 7.625 -39.71875 8.28125 -39.09375 C 8.9375 -38.46875 9.265625 -37.707031 9.265625 -36.8125 C 9.265625 -35.914062 8.9375 -35.144531 8.28125 -34.5 C 7.625 -33.863281 6.832031 -33.546875 5.90625 -33.546875 Z M 8.078125 0 L 3.671875 0 L 3.671875 -28.640625 L 8.078125 -28.640625 Z M 8.078125 0 "/></g></g></g><g fill="#ffffff" fill-opacity="1"><g transform="translate(250.855844, 52.568467)"><g><path d="M 18.171875 -31.640625 L 14.140625 -31.640625 L 20.1875 -39.515625 L 25.578125 -39.515625 Z M 16.46875 0.515625 C 13.738281 0.515625 11.320312 -0.117188 9.21875 -1.390625 C 7.113281 -2.671875 5.460938 -4.441406 4.265625 -6.703125 C 3.078125 -8.960938 2.484375 -11.546875 2.484375 -14.453125 C 2.484375 -17.273438 3.078125 -19.789062 4.265625 -22 C 5.460938 -24.21875 7.113281 -25.960938 9.21875 -27.234375 C 11.320312 -28.515625 13.738281 -29.15625 16.46875 -29.15625 C 19.195312 -29.15625 21.617188 -28.515625 23.734375 -27.234375 C 25.859375 -25.960938 27.523438 -24.21875 28.734375 -22 C 29.941406 -19.789062 30.546875 -17.273438 30.546875 -14.453125 C 30.546875 -11.585938 29.953125 -9.019531 28.765625 -6.75 C 27.578125 -4.488281 25.921875 -2.710938 23.796875 -1.421875 C 21.671875 -0.128906 19.226562 0.515625 16.46875 0.515625 Z M 16.46875 -3.359375 C 18.289062 -3.359375 19.925781 -3.84375 21.375 -4.8125 C 22.832031 -5.78125 23.984375 -7.097656 24.828125 -8.765625 C 25.671875 -10.441406 26.09375 -12.335938 26.09375 -14.453125 C 26.09375 -16.484375 25.675781 -18.316406 24.84375 -19.953125 C 24.019531 -21.597656 22.882812 -22.894531 21.4375 -23.84375 C 19.988281 -24.789062 18.332031 -25.265625 16.46875 -25.265625 C 14.632812 -25.265625 12.992188 -24.796875 11.546875 -23.859375 C 10.097656 -22.929688 8.957031 -21.644531 8.125 -20 C 7.300781 -18.363281 6.890625 -16.515625 6.890625 -14.453125 C 6.890625 -12.304688 7.3125 -10.394531 8.15625 -8.71875 C 9 -7.050781 10.144531 -5.738281 11.59375 -4.78125 C 13.050781 -3.832031 14.675781 -3.359375 16.46875 -3.359375 Z M 16.46875 -3.359375 "/></g></g></g><g fill="#ffffff" fill-opacity="1"><g transform="translate(283.939184, 52.568467)"><g><path d="M 8.078125 0 L 3.671875 0 L 3.671875 -28.640625 L 8.078125 -28.640625 L 8.078125 -24.1875 C 9.523438 -26.050781 10.910156 -27.34375 12.234375 -28.0625 C 13.566406 -28.789062 15.007812 -29.15625 16.5625 -29.15625 C 18.8125 -29.15625 20.609375 -28.726562 21.953125 -27.875 C 23.296875 -27.03125 24.316406 -25.953125 25.015625 -24.640625 C 25.703125 -23.367188 26.097656 -22.039062 26.203125 -20.65625 C 26.304688 -19.28125 26.359375 -18.144531 26.359375 -17.25 L 26.359375 0 L 21.953125 0 L 21.953125 -17.25 C 21.953125 -20.28125 21.398438 -22.414062 20.296875 -23.65625 C 19.328125 -24.726562 17.859375 -25.265625 15.890625 -25.265625 C 14.722656 -25.265625 13.707031 -25.070312 12.84375 -24.6875 C 11.976562 -24.3125 11.253906 -23.796875 10.671875 -23.140625 C 9.734375 -22.179688 9.066406 -20.851562 8.671875 -19.15625 C 8.273438 -17.46875 8.078125 -15.15625 8.078125 -12.21875 Z M 8.078125 0 "/></g></g></g><g fill="#ffffff" fill-opacity="1"><g transform="translate(313.763086, 52.568467)"><g/></g></g></g></g></svg>